<svg width="24" height="24" viewBox="0 0 24 24" fill="none" xmlns="http://www.w3.org/2000/svg">
  <path
    d="M3 3L21 21M10.584 10.587C10.2087 10.9623 9.99778 11.4708 9.99756 12.0011C9.99734 12.5315 10.2078 13.0401 10.5828 13.4157C10.9578 13.7913 11.4661 14.0026 11.9964 14.0028C12.5268 14.003 13.0353 13.7925 13.4106 13.4175M17.357 17.349C15.726 18.449 13.942 19 12 19C8.00001 19 4.60001 16.75 2.65002 13.5C1.78336 11.984 1.78336 10.016 2.65002 8.50001C3.86265 6.36089 5.73526 4.71617 8.00001 3.80701M12 5C16 5 19.4 7.25 21.35 10.5C22.2167 12.016 22.2167 13.984 21.35 15.5C20.9616 16.2031 20.5138 16.8723 20.011 17.5"
    stroke="currentColor"
    strokeWidth="2"
    strokeLinecap="round"
    strokeLinejoin="round"
  />
</svg>