<svg width="24" height="24" viewBox="0 0 24 24" fill="none" xmlns="http://www.w3.org/2000/svg">
  <path
    d="M12 5C7.99998 5 4.60001 7.24998 2.65002 10.5C1.78336 12.016 1.78336 13.984 2.65002 15.5C4.60001 18.75 7.99998 21 12 21C16 21 19.4 18.75 21.35 15.5C22.2167 13.984 22.2167 12.016 21.35 10.5C19.4 7.24998 16 5 12 5Z"
    stroke="currentColor"
    strokeWidth="2"
    strokeLinecap="round"
    strokeLinejoin="round"
  />
  <path
    d="M12 15C13.6569 15 15 13.6569 15 12C15 10.3431 13.6569 9 12 9C10.3431 9 9 10.3431 9 12C9 13.6569 10.3431 15 12 15Z"
    stroke="currentColor"
    strokeWidth="2"
    strokeLinecap="round"
    strokeLinejoin="round"
  />
</svg>